<svg xmlns="http://www.w3.org/2000/svg" version="1.1" xmlns:xlink="http://www.w3.org/1999/xlink" xmlns:svgjs="http://svgjs.com/svgjs" width="1540" height="860" preserveAspectRatio="none" viewBox="0 0 1540 860"><g mask="url(&quot;#SvgjsMask1094&quot;)" fill="none"><path d="M827.592,785.561C881.205,788.879,935.434,767.354,963.697,721.674C993.351,673.745,992.555,612.932,964.723,563.922C936.542,514.297,884.651,482.991,827.592,482.004C768.753,480.987,707.845,506.167,681.995,559.034C658.185,607.729,688.535,660.86,717.842,706.458C743.975,747.117,779.351,782.575,827.592,785.561" fill="rgba(219, 233, 255, 1)" class="triangle-float1"></path><path d="M128.025,693.381C154.893,692.584,183.667,689.636,198.591,667.279C214.991,642.711,215.621,610.071,200.625,584.622C185.837,559.527,157.11,545.95,128.025,547.525C101.378,548.968,82.096,569.229,67.874,591.809C52.28,616.566,34.91,646.514,49.819,671.69C64.594,696.638,99.043,694.24,128.025,693.381" fill="rgba(219, 233, 255, 1)" class="triangle-float2"></path><path d="M226.822,667.139C247.854,665.711,267.027,654.961,277.273,636.539C287.241,618.618,284.998,597.466,275.755,579.16C265.314,558.481,249.915,538.439,226.822,536.617C200.944,534.576,175.647,547.893,162.4,570.217C148.892,592.981,148.268,622.26,162.921,644.305C176.341,664.495,202.635,668.782,226.822,667.139" fill="rgba(219, 233, 255, 1)" class="triangle-float2"></path><path d="M80.49,193.363C122.889,190.398,157.272,164.848,180.857,129.489C208.205,88.488,233.541,39.879,212.636,-4.753C189.224,-54.739,135.653,-86.747,80.49,-84.797C28.065,-82.944,-10.918,-41.797,-36.41,4.05C-61.037,48.341,-74.163,102.339,-47.537,145.458C-21.878,187.011,31.772,196.769,80.49,193.363" fill="rgba(219, 233, 255, 1)" class="triangle-float1"></path><path d="M1499.007,652.313C1554.174,652.534,1601.767,615.841,1627.876,567.243C1652.593,521.236,1648.67,466.732,1623.208,421.133C1597.025,374.244,1552.671,338.518,1499.007,336.458C1441.8,334.262,1384.827,360.823,1357.116,410.919C1330.139,459.689,1343.673,518.169,1371.916,566.217C1399.707,613.497,1444.164,652.093,1499.007,652.313" fill="rgba(219, 233, 255, 1)" class="triangle-float3"></path></g><defs><mask id="SvgjsMask1094"><rect width="1540" height="860" fill="#ffffff"></rect></mask><style>
            @keyframes float1 {
                0%{transform: translate(0, 0)}
                50%{transform: translate(-10px, 0)}
                100%{transform: translate(0, 0)}
            }

            .triangle-float1 {
                animation: float1 5s infinite;
            }

            @keyframes float2 {
                0%{transform: translate(0, 0)}
                50%{transform: translate(-5px, -5px)}
                100%{transform: translate(0, 0)}
            }

            .triangle-float2 {
                animation: float2 4s infinite;
            }

            @keyframes float3 {
                0%{transform: translate(0, 0)}
                50%{transform: translate(0, -10px)}
                100%{transform: translate(0, 0)}
            }

            .triangle-float3 {
                animation: float3 6s infinite;
            }
        </style></defs></svg>